<mxfile host="65bd71144e" modified="2020-10-15T21:51:18.480Z" agent="5.0 (Windows NT 10.0; Win64; x64) AppleWebKit/537.36 (KHTML, like Gecko) Code/1.50.1 Chrome/83.0.4103.122 Electron/9.2.1 Safari/537.36" version="13.6.5" etag="dz5cT5xI7jYdihorra2z" pages="5">
    <diagram id="O0BNRL8dKaxJZ5UJRK_e" name="Página-1">
        <mxGraphModel dx="756" dy="529" grid="1" gridSize="10" guides="1" tooltips="1" connect="1" arrows="1" fold="1" page="1" pageScale="1" pageWidth="827" pageHeight="1169" math="0" shadow="0">
            <root>
                <mxCell id="0"/>
                <mxCell id="1" parent="0"/>
                <mxCell id="2" value="Logo" style="ellipse;whiteSpace=wrap;html=1;" vertex="1" parent="1">
                    <mxGeometry x="10" y="20" width="120" height="80" as="geometry"/>
                </mxCell>
                <mxCell id="3" value="Menú Principal" style="rounded=0;whiteSpace=wrap;html=1;" vertex="1" parent="1">
                    <mxGeometry x="360" y="30" width="410" height="60" as="geometry"/>
                </mxCell>
                <mxCell id="4" value="Menú secundario" style="rounded=0;whiteSpace=wrap;html=1;" vertex="1" parent="1">
                    <mxGeometry x="10" y="1050" width="250" height="60" as="geometry"/>
                </mxCell>
                <mxCell id="7" value="&lt;h1&gt;LBM Translations&lt;/h1&gt;" style="text;html=1;strokeColor=none;fillColor=none;spacing=5;spacingTop=-20;whiteSpace=wrap;overflow=hidden;rounded=0;" vertex="1" parent="1">
                    <mxGeometry x="20" y="120" width="740" height="850" as="geometry"/>
                </mxCell>
                <mxCell id="8" value="Contenido" style="text;html=1;strokeColor=none;fillColor=none;align=center;verticalAlign=middle;whiteSpace=wrap;rounded=0;" vertex="1" parent="1">
                    <mxGeometry x="80" y="200" width="600" height="710" as="geometry"/>
                </mxCell>
                <mxCell id="13" value="Derecho" style="text;html=1;strokeColor=none;fillColor=none;align=center;verticalAlign=middle;whiteSpace=wrap;rounded=0;" vertex="1" parent="1">
                    <mxGeometry x="520" y="1050" width="230" height="60" as="geometry"/>
                </mxCell>
            </root>
        </mxGraphModel>
    </diagram>
    <diagram id="9s9x_ACECFVu1XG8wnho" name="Página-2">
        <mxGraphModel dx="756" dy="529" grid="1" gridSize="10" guides="1" tooltips="1" connect="1" arrows="1" fold="1" page="1" pageScale="1" pageWidth="827" pageHeight="1169" math="0" shadow="0">
            <root>
                <mxCell id="BNSbmyZ5RXcMpsRvfHh9-0"/>
                <mxCell id="BNSbmyZ5RXcMpsRvfHh9-1" parent="BNSbmyZ5RXcMpsRvfHh9-0"/>
                <mxCell id="GCaMVRY90Rfngpi7bBiT-0" value="Logo" style="ellipse;whiteSpace=wrap;html=1;" vertex="1" parent="BNSbmyZ5RXcMpsRvfHh9-1">
                    <mxGeometry x="10" y="10" width="120" height="80" as="geometry"/>
                </mxCell>
                <mxCell id="2AAuhAiivD_RTcztAvwM-0" value="Menú Principal" style="rounded=0;whiteSpace=wrap;html=1;" vertex="1" parent="BNSbmyZ5RXcMpsRvfHh9-1">
                    <mxGeometry x="350" y="10" width="410" height="60" as="geometry"/>
                </mxCell>
                <mxCell id="N7KOkNDHcH7UDVDAKHeW-0" value="&lt;h1&gt;Standard&lt;/h1&gt;" style="text;html=1;strokeColor=none;fillColor=none;spacing=5;spacingTop=-20;whiteSpace=wrap;overflow=hidden;rounded=0;" vertex="1" parent="BNSbmyZ5RXcMpsRvfHh9-1">
                    <mxGeometry x="10" y="100" width="740" height="850" as="geometry"/>
                </mxCell>
            </root>
        </mxGraphModel>
    </diagram>
    <diagram id="ZAWWzC7AE23Mf2rlMbsV" name="Página-3">
        <mxGraphModel dx="756" dy="529" grid="1" gridSize="10" guides="1" tooltips="1" connect="1" arrows="1" fold="1" page="1" pageScale="1" pageWidth="827" pageHeight="1169" math="0" shadow="0">
            <root>
                <mxCell id="xQ9958irY0keUW1K9WOV-0"/>
                <mxCell id="xQ9958irY0keUW1K9WOV-1" parent="xQ9958irY0keUW1K9WOV-0"/>
                <mxCell id="fyWmGrIr2YMwBaUF_xpk-0" value="Logo" style="ellipse;whiteSpace=wrap;html=1;" vertex="1" parent="xQ9958irY0keUW1K9WOV-1">
                    <mxGeometry x="20" y="10" width="120" height="80" as="geometry"/>
                </mxCell>
                <mxCell id="QpNaUC-2HKO6I6wGONxA-0" value="Menú Principal" style="rounded=0;whiteSpace=wrap;html=1;" vertex="1" parent="xQ9958irY0keUW1K9WOV-1">
                    <mxGeometry x="350" y="10" width="410" height="60" as="geometry"/>
                </mxCell>
                <mxCell id="BNjHt0cfwsOHEWgjxYPH-0" value="&lt;h1&gt;Services&lt;/h1&gt;" style="text;html=1;strokeColor=none;fillColor=none;spacing=5;spacingTop=-20;whiteSpace=wrap;overflow=hidden;rounded=0;" vertex="1" parent="xQ9958irY0keUW1K9WOV-1">
                    <mxGeometry x="10" y="100" width="740" height="850" as="geometry"/>
                </mxCell>
            </root>
        </mxGraphModel>
    </diagram>
    <diagram id="ViFXutfz5NMEVfOP63Bf" name="Página-4">
        <mxGraphModel dx="756" dy="529" grid="1" gridSize="10" guides="1" tooltips="1" connect="1" arrows="1" fold="1" page="1" pageScale="1" pageWidth="827" pageHeight="1169" math="0" shadow="0">
            <root>
                <mxCell id="EW8yWsZ3sCCuIuZbbsVj-0"/>
                <mxCell id="EW8yWsZ3sCCuIuZbbsVj-1" parent="EW8yWsZ3sCCuIuZbbsVj-0"/>
                <mxCell id="t3Fn8RbSIjNIxHbROySf-0" value="Logo" style="ellipse;whiteSpace=wrap;html=1;" vertex="1" parent="EW8yWsZ3sCCuIuZbbsVj-1">
                    <mxGeometry x="10" y="10" width="120" height="80" as="geometry"/>
                </mxCell>
                <mxCell id="ctIi6KO-_VdNepgNwMDo-0" value="Menú Principal" style="rounded=0;whiteSpace=wrap;html=1;" vertex="1" parent="EW8yWsZ3sCCuIuZbbsVj-1">
                    <mxGeometry x="350" y="10" width="410" height="60" as="geometry"/>
                </mxCell>
                <mxCell id="VGRo7OmVxzDQwrXVe7LW-0" value="&lt;h1&gt;References&lt;/h1&gt;" style="text;html=1;strokeColor=none;fillColor=none;spacing=5;spacingTop=-20;whiteSpace=wrap;overflow=hidden;rounded=0;" vertex="1" parent="EW8yWsZ3sCCuIuZbbsVj-1">
                    <mxGeometry x="10" y="100" width="740" height="850" as="geometry"/>
                </mxCell>
            </root>
        </mxGraphModel>
    </diagram>
    <diagram id="bo4FoUy5jomOzz5ctgyW" name="Página-5">
        <mxGraphModel dx="756" dy="529" grid="1" gridSize="10" guides="1" tooltips="1" connect="1" arrows="1" fold="1" page="1" pageScale="1" pageWidth="827" pageHeight="1169" math="0" shadow="0">
            <root>
                <mxCell id="RC0tYjgDVoO5vkYIl-ZE-0"/>
                <mxCell id="RC0tYjgDVoO5vkYIl-ZE-1" parent="RC0tYjgDVoO5vkYIl-ZE-0"/>
                <mxCell id="CcOyo37F5JlbhaQDy4Gk-0" value="Logo" style="ellipse;whiteSpace=wrap;html=1;" vertex="1" parent="RC0tYjgDVoO5vkYIl-ZE-1">
                    <mxGeometry x="10" y="10" width="120" height="80" as="geometry"/>
                </mxCell>
                <mxCell id="BSucWrVuKRBZFlSFXEQv-0" value="Menú Principal" style="rounded=0;whiteSpace=wrap;html=1;" vertex="1" parent="RC0tYjgDVoO5vkYIl-ZE-1">
                    <mxGeometry x="350" y="10" width="410" height="60" as="geometry"/>
                </mxCell>
                <mxCell id="ROR8HWkNWYtvpE0Ydoh3-0" value="&lt;h1&gt;Get my free quote&lt;/h1&gt;" style="text;html=1;strokeColor=none;fillColor=none;spacing=5;spacingTop=-20;whiteSpace=wrap;overflow=hidden;rounded=0;" vertex="1" parent="RC0tYjgDVoO5vkYIl-ZE-1">
                    <mxGeometry x="10" y="100" width="740" height="850" as="geometry"/>
                </mxCell>
                <mxCell id="ROR8HWkNWYtvpE0Ydoh3-1" value="Formulario" style="whiteSpace=wrap;html=1;aspect=fixed;" vertex="1" parent="RC0tYjgDVoO5vkYIl-ZE-1">
                    <mxGeometry x="210" y="180" width="290" height="290" as="geometry"/>
                </mxCell>
            </root>
        </mxGraphModel>
    </diagram>
</mxfile>